<svg preserveAspectRatio="none" overflow="visible" style="display: block;" width="321.179" height="143.288" viewBox="0 0 321.179 143.288" fill="none" xmlns="http://www.w3.org/2000/svg">
<g id="Frame 21">
<rect width="321.179" height="143.288" rx="32" fill="#233D4C"/>
<g id="Vector">
<path d="M59.8875 57.9832C59.8875 58.1725 60.0416 58.3294 60.2336 58.3294C62.6021 58.3294 76.3131 58.3294 76.3131 58.3294V70.0097H48.7235C48.3126 70.0097 47.9151 69.8475 47.6231 69.5555C47.3338 69.2635 47.1689 68.8688 47.1689 68.4551C47.1689 62.2391 47.1689 39.0296 47.1689 28.966C47.1689 26.3677 49.2751 24.2614 51.8735 24.2614C52.9523 24.2614 54.1041 24.2614 55.1829 24.2614C56.4321 24.2614 57.6272 24.759 58.5086 25.6404C59.3927 26.5218 59.8875 27.7196 59.8875 28.966C59.8875 37.5884 59.8875 55.2902 59.8875 57.9832Z" fill="#FE7F2E"/>
<path d="M64.5594 51.3212C64.5594 47.5576 65.2408 44.2697 66.6035 41.4578C67.9662 38.6458 69.8264 36.4827 72.1841 34.9686C74.5418 33.4544 77.1699 32.6975 80.0684 32.6975C82.5775 32.6975 84.7406 33.195 86.5575 34.19C88.3745 35.185 89.7805 36.526 90.7755 38.2132C90.7755 38.2132 90.789 35.3958 90.7971 33.833C90.7998 33.2706 91.254 32.8165 91.8164 32.8165C94.0065 32.8165 99.1897 32.8165 101.861 32.8165C102.302 32.8165 102.724 32.9922 103.034 33.3031C103.343 33.6141 103.518 34.0358 103.518 34.4738C103.513 40.4925 103.5 61.1712 103.494 67.6198C103.494 68.6905 102.626 69.5556 101.558 69.5556C99.1626 69.5556 95.1096 69.5556 92.7141 69.5556C92.2004 69.5556 91.7055 69.3528 91.3432 68.9905C90.9782 68.6255 90.7755 68.1335 90.7755 67.6198C90.7755 66.1922 90.7755 64.4942 90.7755 64.4942C89.7805 66.1814 88.3637 67.5224 86.5251 68.5174C84.6865 69.5124 82.5343 70.0099 80.0684 70.0099C77.1699 70.0099 74.5418 69.2527 72.1841 67.7386C69.8264 66.2245 67.9662 64.0507 66.6035 61.2171C65.2408 58.3835 64.5594 55.0849 64.5594 51.3212ZM90.7755 51.3212C90.7755 48.9852 90.1373 47.1465 88.8612 45.8054C87.585 44.4643 86.0168 43.7939 84.1566 43.7939C82.2531 43.7939 80.6741 44.4536 79.4195 45.773C78.1649 47.0925 77.5376 48.9419 77.5376 51.3212C77.5376 53.6573 78.1649 55.5067 79.4195 56.8694C80.6741 58.2322 82.2531 58.9135 84.1566 58.9135C86.0168 58.9135 87.585 58.2429 88.8612 56.9018C90.1373 55.5607 90.7755 53.7006 90.7755 51.3212Z" fill="#FE7F2E"/>
<path d="M126.914 58.3944C127.669 58.3944 128.283 59.0083 128.283 59.7627C128.283 62.6773 128.283 69.2312 128.283 69.2312H122.767C113.466 69.2312 108.815 64.624 108.815 55.4094V43.4045H105.992C105.554 43.4045 105.133 43.2316 104.822 42.9207C104.513 42.6097 104.338 42.1878 104.338 41.7498C104.338 39.7679 104.338 36.4667 104.338 34.4848C104.338 34.0468 104.513 33.6249 104.822 33.314C105.133 33.003 105.554 32.8273 105.992 32.8273C107.269 32.8273 108.815 32.8273 108.815 32.8273V27.2684C108.815 25.4649 110.275 24.0022 112.079 24.0022C113.998 24.0022 116.416 24.0022 118.335 24.0022C120.136 24.0022 121.599 25.4649 121.599 27.2684C121.599 29.7802 121.599 32.8273 121.599 32.8273H125.771C127.123 32.8273 128.218 33.9251 128.218 35.277C128.218 36.9831 128.218 39.2516 128.218 40.9577C128.218 42.3096 127.123 43.4045 125.771 43.4045C123.884 43.4045 121.599 43.4045 121.599 43.4045V55.6041C121.599 56.5991 121.826 57.3129 122.28 57.7455C122.734 58.1781 123.502 58.3944 124.584 58.3944H126.914Z" fill="#FE7F2E"/>
<path d="M165.141 50.153C165.141 50.8127 165.111 51.4726 165.054 52.1323C165.006 52.7028 164.527 53.138 163.956 53.138C159.425 53.138 140.871 53.138 140.871 53.138C141.001 55.128 141.553 56.6098 142.526 57.5831C143.5 58.5565 144.743 59.0431 146.257 59.0431C148.172 59.0431 149.594 58.2671 150.519 56.7151C150.705 56.3988 151.046 56.2042 151.411 56.2042C153.32 56.188 159.219 56.188 162.356 56.188C162.848 56.188 163.31 56.4286 163.594 56.8288C163.878 57.2317 163.951 57.748 163.786 58.2131C163.156 59.9137 162.259 61.4819 161.085 62.9041C159.463 64.8725 157.419 66.4191 154.953 67.5438C152.487 68.6686 149.762 69.2311 146.777 69.2311C143.186 69.2311 139.995 68.4739 137.205 66.9598C134.415 65.4457 132.23 63.2827 130.651 60.4708C129.072 57.6588 128.283 54.3494 128.283 50.5424C128.283 46.7355 129.061 43.4368 130.619 40.6464C132.176 37.8561 134.35 35.7039 137.14 34.1898C139.931 32.6756 143.143 31.9187 146.777 31.9187C150.367 31.9187 153.547 32.654 156.316 34.1249C159.084 35.5958 161.247 37.7048 162.805 40.4519C164.362 43.1989 165.141 46.4325 165.141 50.153ZM152.163 46.9734C152.163 45.416 151.643 44.1938 150.605 43.307C149.567 42.4202 148.269 41.9767 146.712 41.9767C145.154 41.9767 143.878 42.3986 142.883 43.2421C141.888 44.0857 141.239 45.3295 140.936 46.9734H152.163Z" fill="#FE7F2E"/>
<path d="M78.2485 107.517H62.0257C62.0257 107.517 60.5738 111.908 59.8518 114.095C59.6139 114.817 58.9379 115.304 58.1782 115.304C55.9827 115.304 51.4538 115.304 48.604 115.304C48.0281 115.304 47.4901 115.025 47.1602 114.552C46.8303 114.082 46.7492 113.479 46.9466 112.938C50.3777 103.521 62.8693 69.2312 62.8693 69.2312H77.5347C77.5347 69.2312 90.0668 103.748 93.4384 113.03C93.6277 113.549 93.5493 114.13 93.2329 114.582C92.9166 115.036 92.3975 115.304 91.8432 115.304C88.9637 115.304 84.2671 115.304 82.0554 115.304C81.3254 115.304 80.6765 114.836 80.4467 114.144C79.7247 111.973 78.2485 107.517 78.2485 107.517ZM74.6281 97.7833C74.7308 97.7833 74.8255 97.7345 74.885 97.6534C74.9444 97.5696 74.9606 97.4643 74.9282 97.3669C74.2631 95.3661 71.3863 86.7356 70.4399 83.8966C70.3967 83.7668 70.275 83.6803 70.1371 83.6803C70.0019 83.6803 69.8802 83.7695 69.837 83.8992C68.9041 86.7382 66.0652 95.3715 65.4054 97.3696C65.3757 97.4642 65.3919 97.5723 65.4514 97.6534C65.5109 97.7345 65.6055 97.7833 65.7083 97.7833C67.3333 97.7833 73.0004 97.7833 74.6281 97.7833Z" fill="#FE7F2E"/>
<path d="M128.283 88.6335V110.878C128.283 113.144 126.444 114.979 124.178 114.979C121.139 114.979 117.308 114.979 115.978 114.979C115.85 114.979 115.729 114.931 115.64 114.842C115.55 114.75 115.499 114.628 115.499 114.501C115.499 113.216 115.499 109.788 115.499 109.788C114.417 111.432 112.925 112.762 111.021 113.779C109.118 114.796 106.933 115.304 104.467 115.304C100.228 115.304 96.886 113.909 94.4418 111.118C91.9975 108.328 90.7754 104.532 90.7754 99.7299V82.9069C90.7754 80.514 92.714 78.5754 95.1042 78.5754C96.3966 78.5754 97.808 78.5754 99.1004 78.5754C101.491 78.5754 103.429 80.514 103.429 82.9069V98.1077C103.429 100.184 103.981 101.817 105.084 103.007C106.187 104.197 107.647 104.791 109.464 104.791C111.324 104.791 112.795 104.197 113.877 103.007C114.958 101.817 115.499 100.184 115.499 98.1077V90.591C115.499 89.5095 116.375 88.6335 117.454 88.6335C121.034 88.6335 128.283 88.6335 128.283 88.6335Z" fill="#FE7F2E"/>
<path d="M145.709 103.623C146.25 103.623 146.769 103.84 147.153 104.221C147.534 104.605 147.751 105.124 147.751 105.665C147.751 107.598 147.751 110.488 147.751 112.422C147.751 112.962 147.534 113.481 147.153 113.863C146.769 114.247 146.25 114.46 145.709 114.46H142.235C132.934 114.46 128.283 109.853 128.283 100.638L128.283 88.6335H117.454C116.372 88.6335 115.5 87.7603 115.5 86.6788C115.5 84.7807 115.5 81.9119 115.5 80.0139C115.5 78.9323 116.373 78.0563 117.454 78.0563C121.034 78.0563 128.283 78.0563 128.283 78.0563L128.283 69.2312L139.628 69.2312C140.423 69.2312 141.067 69.8773 141.067 70.6695C141.067 73.1706 141.067 78.0563 141.067 78.0563H149.873C150.911 78.0563 151.906 78.47 152.639 79.2027C153.372 79.9382 153.785 80.9332 153.785 81.9688C153.785 82.8691 153.785 83.8235 153.785 84.7239C153.785 85.7594 153.372 86.7545 152.639 87.4899C151.906 88.2226 150.911 88.6335 149.873 88.6335C146.134 88.6335 141.067 88.6335 141.067 88.6335V100.833C141.067 101.828 141.294 102.542 141.748 102.975C142.202 103.407 142.97 103.623 144.052 103.623H145.709Z" fill="#FE7F2E"/>
<path d="M188.596 78.0561C191.181 78.0561 193.276 80.1516 193.276 82.7364C193.276 90.7262 193.276 106.687 193.276 112.381C193.276 112.932 193.057 113.462 192.668 113.852C192.278 114.241 191.749 114.46 191.197 114.46C188.82 114.46 184.949 114.46 182.572 114.46C182.02 114.46 181.49 114.241 181.101 113.852C180.712 113.462 180.493 112.932 180.493 112.381V108.944C179.411 110.588 177.919 111.919 176.015 112.935C174.112 113.952 171.927 114.46 169.461 114.46C165.222 114.46 161.88 113.065 159.435 110.275C156.991 107.484 155.769 103.688 155.769 98.8861V82.7364C155.769 80.1516 157.865 78.0561 160.449 78.0561C161.525 78.0561 162.666 78.0561 163.743 78.0561C166.327 78.0561 168.423 80.1516 168.423 82.7364C168.423 88.4225 168.423 97.2639 168.423 97.2639C168.423 99.3404 168.974 100.974 170.078 102.163C171.181 103.353 172.641 103.948 174.458 103.948C176.318 103.948 177.789 103.353 178.87 102.163C179.952 100.974 180.493 99.3404 180.493 97.2639V82.7364C180.493 80.1516 182.588 78.0561 185.173 78.0561C186.29 78.0561 187.479 78.0561 188.596 78.0561Z" fill="#FE7F2E"/>
<path d="M242.312 77.7319C246.898 77.7319 250.5 79.1163 253.117 81.885C255.734 84.6537 257.043 88.439 257.043 93.241V109.758C257.043 112.357 254.936 114.46 252.338 114.46C251.259 114.46 250.107 114.46 249.029 114.46C246.43 114.46 244.324 112.357 244.324 109.758C244.324 103.978 244.324 94.928 244.324 94.928C244.324 92.9813 243.783 91.4672 242.702 90.3857C241.62 89.3041 240.149 88.7634 238.289 88.7634C236.429 88.7634 234.958 89.3041 233.877 90.3857C232.795 91.4672 232.254 92.9813 232.254 94.928V109.758C232.254 112.357 230.148 114.46 227.55 114.46C226.471 114.46 225.319 114.46 224.24 114.46C221.642 114.46 219.536 112.357 219.536 109.758C219.536 103.978 219.536 94.928 219.536 94.928C219.536 92.9813 219.006 91.4672 217.946 90.3857C216.886 89.3041 215.426 88.7634 213.566 88.7634C211.662 88.7634 210.17 89.3041 209.088 90.3857C208.007 91.4672 207.466 92.9813 207.466 94.928V109.758C207.466 112.357 205.36 114.46 202.761 114.46C201.682 114.46 200.531 114.46 199.452 114.46C198.203 114.46 197.008 113.966 196.126 113.084C195.242 112.203 194.747 111.005 194.747 109.758C194.747 101.652 194.747 85.3917 194.747 79.9111C194.747 78.8863 195.577 78.0563 196.599 78.0563C199.011 78.0563 203.202 78.0563 205.614 78.0563C206.636 78.0563 207.466 78.8863 207.466 79.9111C207.466 81.263 207.466 82.8583 207.466 82.8583C208.591 81.3009 210.051 80.0571 211.846 79.127C213.641 78.1969 215.707 77.7319 218.043 77.7319C220.725 77.7319 223.115 78.3159 225.214 79.484C227.312 80.652 228.966 82.2959 230.178 84.4156C231.476 82.4257 233.184 80.8143 235.304 79.5814C237.424 78.3484 239.76 77.7319 242.312 77.7319Z" fill="#FE7F2E"/>
<path d="M282.959 77.7319C287.155 77.7319 290.486 79.127 292.952 81.9173C295.418 84.7076 296.651 88.4823 296.651 93.241V109.758C296.651 112.357 294.545 114.46 291.946 114.46C290.868 114.46 289.716 114.46 288.637 114.46C286.039 114.46 283.932 112.357 283.932 109.758C283.932 103.978 283.932 94.928 283.932 94.928C283.932 92.8515 283.391 91.2184 282.31 90.0287C281.228 88.839 279.779 88.2443 277.962 88.2443C276.059 88.2443 274.566 88.839 273.485 90.0287C272.403 91.2184 271.862 92.8515 271.862 94.928V109.758C271.862 112.357 269.756 114.46 267.158 114.46C266.079 114.46 264.927 114.46 263.848 114.46C262.599 114.46 261.404 113.966 260.523 113.084C259.639 112.203 259.144 111.005 259.144 109.758C259.144 101.685 259.144 85.5242 259.144 79.9787C259.144 79.4677 259.347 78.9811 259.706 78.6187C260.066 78.2591 260.555 78.0563 261.064 78.0563C263.462 78.0563 267.545 78.0563 269.943 78.0563C271.003 78.0563 271.862 78.9161 271.862 79.9787C271.862 81.455 271.862 83.2476 271.862 83.2476C272.987 81.6037 274.501 80.2734 276.405 79.2567C278.308 78.2401 280.493 77.7319 282.959 77.7319Z" fill="#FE7F2E"/>
<path d="M30.48 102.243C32.5752 102.243 34.1413 102.859 35.1781 104.09C36.2149 105.321 36.7333 107.136 36.7333 109.533V114.652H47.0041V115.3H24.1944V109.533C24.1944 107.028 24.7452 105.192 25.8468 104.025C26.9484 102.837 28.4928 102.243 30.48 102.243ZM36.0529 109.533C36.0529 107.2 35.5669 105.516 34.5949 104.479C33.6229 103.42 32.2512 102.891 30.48 102.891C28.6224 102.891 27.2184 103.41 26.268 104.446C25.3176 105.483 24.8424 107.179 24.8424 109.533V114.652H36.0529V109.533Z" fill="#FE7F2E"/>
<path d="M46.4209 97.5347V88.7867H47.0041V98.1827H24.1944V97.5347H46.4209Z" fill="#FE7F2E"/>
<path d="M40.7185 72.7638V84.039L47.0041 86.4366V87.1819L24.8748 78.7254V78.0774L47.0041 69.6534V70.3986L40.7185 72.7638ZM40.1353 72.9906L25.9116 78.4014L40.1353 83.8122V72.9906Z" fill="#FE7F2E"/>
<path d="M47.0041 50.4859V51.1339L25.3932 65.2928H47.0041V65.9408H24.2268V65.2928L45.8053 51.1339H24.2268V50.4859H47.0041Z" fill="#FE7F2E"/>
<path d="M47.2633 34.8865C47.2633 36.9817 46.7773 38.8609 45.8053 40.5241C44.8117 42.1657 43.4293 43.4509 41.6581 44.3797C39.8869 45.3085 37.8781 45.7729 35.6317 45.7729C33.3852 45.7729 31.3764 45.3085 29.6052 44.3797C27.834 43.4509 26.4624 42.1657 25.4904 40.5241C24.4968 38.8609 24 36.9817 24 34.8865C24 32.7912 24.4968 30.9228 25.4904 29.2812C26.4624 27.618 27.834 26.322 29.6052 25.3932C31.3764 24.4644 33.3852 24 35.6317 24C37.8781 24 39.8869 24.4644 41.6581 25.3932C43.4293 26.322 44.8117 27.618 45.8053 29.2812C46.7773 30.9228 47.2633 32.7912 47.2633 34.8865ZM46.6801 34.8865C46.6801 32.9856 46.2373 31.2576 45.3517 29.7024C44.4445 28.1472 43.1593 26.9268 41.4961 26.0412C39.8113 25.134 37.8565 24.6804 35.6317 24.6804C33.4068 24.6804 31.4628 25.134 29.7996 26.0412C28.1148 26.9268 26.8296 28.1472 25.944 29.7024C25.0368 31.2576 24.5832 32.9856 24.5832 34.8865C24.5832 36.7873 25.0368 38.5153 25.944 40.0705C26.8296 41.6257 28.1148 42.8569 29.7996 43.7641C31.4628 44.6497 33.4068 45.0925 35.6317 45.0925C37.8565 45.0925 39.8113 44.6497 41.4961 43.7641C43.1593 42.8569 44.4445 41.6257 45.3517 40.0705C46.2373 38.5153 46.6801 36.7873 46.6801 34.8865Z" fill="#FE7F2E"/>
<path d="M192.017 42.0723C192.017 42.96 191.813 43.7712 191.406 44.506C190.998 45.2409 190.372 45.8338 189.528 46.2849C188.685 46.736 187.637 46.9616 186.385 46.9616H184.072V52.462H180.339V37.1394H186.385C187.608 37.1394 188.641 37.3503 189.485 37.7725C190.329 38.1944 190.962 38.7765 191.384 39.5186C191.806 40.2607 192.017 41.112 192.017 42.0723ZM186.102 43.9931C186.815 43.9931 187.346 43.8258 187.695 43.4911C188.044 43.1564 188.219 42.6835 188.219 42.0723C188.219 41.4612 188.044 40.9883 187.695 40.6536C187.346 40.3189 186.815 40.1516 186.102 40.1516H184.072V43.9931H186.102Z" fill="#818AA3"/>
<path d="M197.692 42.3124C198.128 41.6431 198.674 41.1156 199.329 40.73C199.984 40.3444 200.711 40.1516 201.511 40.1516V44.1022H200.486C199.554 44.1022 198.856 44.3023 198.39 44.7025C197.925 45.1027 197.692 45.8047 197.692 46.8088V52.462H193.959V40.2825H197.692V42.3124Z" fill="#818AA3"/>
<path d="M214.782 46.176C214.782 46.5252 214.76 46.889 214.717 47.2674H206.27C206.328 48.024 206.572 48.6024 207.001 49.0026C207.43 49.4028 207.958 49.6028 208.583 49.6028C209.515 49.6028 210.162 49.21 210.526 48.4242H214.499C214.295 49.2245 213.927 49.9448 213.396 50.5851C212.865 51.2253 212.199 51.7273 211.399 52.0911C210.599 52.4549 209.704 52.6368 208.714 52.6368C207.521 52.6368 206.459 52.3821 205.528 51.8728C204.596 51.3635 203.869 50.636 203.345 49.6901C202.821 48.7443 202.559 47.6384 202.559 46.3725C202.559 45.1065 202.817 44.0006 203.334 43.0548C203.851 42.1089 204.575 41.3814 205.506 40.8721C206.437 40.3628 207.507 40.1081 208.714 40.1081C209.893 40.1081 210.941 40.3555 211.857 40.8502C212.774 41.345 213.491 42.0507 214.008 42.9674C214.524 43.8842 214.782 44.9537 214.782 46.176ZM210.963 45.1938C210.963 44.5535 210.744 44.0442 210.308 43.6659C209.871 43.2876 209.326 43.0984 208.671 43.0984C208.045 43.0984 207.518 43.2803 207.088 43.6441C206.659 44.0079 206.393 44.5244 206.292 45.1938H210.963Z" fill="#818AA3"/>
<path d="M221.701 52.6368C220.639 52.6368 219.693 52.4549 218.864 52.0911C218.035 51.7273 217.38 51.229 216.9 50.596C216.419 49.963 216.15 49.2536 216.092 48.4678H219.781C219.824 48.8898 220.021 49.2318 220.37 49.4937C220.719 49.7556 221.148 49.8866 221.658 49.8866C222.123 49.8866 222.484 49.7956 222.738 49.6137C222.993 49.4318 223.12 49.1954 223.12 48.9044C223.12 48.5551 222.938 48.2969 222.575 48.1295C222.211 47.9622 221.621 47.7766 220.806 47.5729C219.933 47.3692 219.206 47.1546 218.624 46.929C218.042 46.7035 217.54 46.347 217.118 45.8595C216.696 45.372 216.485 44.7136 216.485 43.8842C216.485 43.1857 216.677 42.5491 217.063 41.9743C217.449 41.3995 218.016 40.9448 218.766 40.6101C219.515 40.2755 220.406 40.1081 221.44 40.1081C222.967 40.1081 224.171 40.4865 225.052 41.2431C225.932 41.9998 226.438 43.0038 226.569 44.2552H223.12C223.062 43.8333 222.876 43.4986 222.563 43.2512C222.251 43.0038 221.84 42.8801 221.33 42.8801C220.894 42.8801 220.559 42.9638 220.326 43.1312C220.094 43.2985 219.977 43.5277 219.977 43.8187C219.977 44.1679 220.163 44.4298 220.534 44.6045C220.905 44.7791 221.483 44.9537 222.269 45.1283C223.171 45.3611 223.906 45.5903 224.473 45.8159C225.041 46.0414 225.539 46.4052 225.969 46.9072C226.398 47.4092 226.62 48.0822 226.634 48.9262C226.634 49.6392 226.434 50.2758 226.034 50.8361C225.634 51.3963 225.059 51.8365 224.31 52.1566C223.56 52.4767 222.691 52.6368 221.701 52.6368Z" fill="#818AA3"/>
<path d="M240.407 46.176C240.407 46.5252 240.385 46.889 240.342 47.2674H231.895C231.953 48.024 232.197 48.6024 232.626 49.0026C233.055 49.4028 233.583 49.6028 234.208 49.6028C235.14 49.6028 235.787 49.21 236.151 48.4242H240.123C239.92 49.2245 239.552 49.9448 239.021 50.5851C238.49 51.2253 237.824 51.7273 237.024 52.0911C236.224 52.4549 235.329 52.6368 234.339 52.6368C233.146 52.6368 232.084 52.3821 231.152 51.8728C230.221 51.3635 229.494 50.636 228.97 49.6901C228.446 48.7443 228.184 47.6384 228.184 46.3725C228.184 45.1065 228.442 44.0006 228.959 43.0548C229.475 42.1089 230.199 41.3814 231.131 40.8721C232.062 40.3628 233.131 40.1081 234.339 40.1081C235.518 40.1081 236.566 40.3555 237.482 40.8502C238.399 41.345 239.116 42.0507 239.632 42.9674C240.149 43.8842 240.407 44.9537 240.407 46.176ZM236.587 45.1938C236.587 44.5535 236.369 44.0442 235.933 43.6659C235.496 43.2876 234.95 43.0984 234.296 43.0984C233.67 43.0984 233.142 43.2803 232.713 43.6441C232.284 44.0079 232.018 44.5244 231.916 45.1938H236.587Z" fill="#818AA3"/>
<path d="M249.793 40.1516C251.219 40.1516 252.357 40.6136 253.208 41.5376C254.06 42.4616 254.485 43.7312 254.485 45.3464V52.462H250.775V45.8484C250.775 45.0335 250.564 44.4006 250.142 43.9495C249.72 43.4984 249.152 43.2728 248.439 43.2728C247.726 43.2728 247.159 43.4984 246.737 43.9495C246.315 44.4006 246.104 45.0335 246.104 45.8484V52.462H242.371V40.2825H246.104V41.8977C246.482 41.3593 246.992 40.9337 247.632 40.6209C248.272 40.308 248.992 40.1516 249.793 40.1516Z" fill="#818AA3"/>
<path d="M256.341 46.3725C256.341 45.1065 256.599 44.0006 257.116 43.0548C257.632 42.1089 258.353 41.3814 259.277 40.8721C260.201 40.3628 261.259 40.1081 262.452 40.1081C263.98 40.1081 265.257 40.5083 266.283 41.3086C267.309 42.1089 267.982 43.2366 268.302 44.6918H264.329C263.995 43.7605 263.347 43.2948 262.387 43.2948C261.703 43.2948 261.157 43.5604 260.75 44.0915C260.342 44.6226 260.139 45.383 260.139 46.3725C260.139 47.3619 260.342 48.1222 260.75 48.6534C261.157 49.1845 261.703 49.4501 262.387 49.4501C263.347 49.4501 263.995 48.9844 264.329 48.0531H268.302C267.982 49.4792 267.305 50.5996 266.272 51.4145C265.239 52.2293 263.966 52.6368 262.452 52.6368C261.259 52.6368 260.201 52.3821 259.277 51.8728C258.353 51.3635 257.632 50.636 257.116 49.6901C256.599 48.7443 256.341 47.6384 256.341 46.3725Z" fill="#818AA3"/>
<path d="M272.165 39.0166C271.51 39.0166 270.976 38.8239 270.561 38.4383C270.146 38.0526 269.939 37.5761 269.939 37.0087C269.939 36.4266 270.146 35.9427 270.561 35.5572C270.976 35.1715 271.51 34.9787 272.165 34.9787C272.806 34.9787 273.333 35.1715 273.748 35.5572C274.162 35.9427 274.37 36.4266 274.37 37.0087C274.37 37.5761 274.162 38.0526 273.748 38.4383C273.333 38.8239 272.806 39.0166 272.165 39.0166ZM274.021 40.2826V52.4621H270.288V40.2826H274.021Z" fill="#818AA3"/>
<path d="M275.985 46.3506C275.985 45.0992 276.221 44.0006 276.694 43.0548C277.167 42.1089 277.811 41.3814 278.626 40.8721C279.441 40.3628 280.35 40.1081 281.354 40.1081C282.213 40.1081 282.966 40.2827 283.613 40.632C284.261 40.9812 284.759 41.4396 285.109 42.0071V40.2827H288.841V52.4622H285.109V50.7378C284.745 51.3053 284.239 51.7637 283.592 52.1129C282.944 52.4622 282.191 52.6368 281.333 52.6368C280.343 52.6368 279.441 52.3785 278.626 51.8619C277.811 51.3454 277.167 50.6105 276.694 49.6574C276.221 48.7043 275.985 47.602 275.985 46.3506ZM285.109 46.3725C285.109 45.4412 284.85 44.7063 284.334 44.1679C283.817 43.6295 283.188 43.3603 282.446 43.3603C281.704 43.3603 281.074 43.6259 280.558 44.157C280.041 44.6881 279.783 45.4193 279.783 46.3506C279.783 47.2819 280.041 48.0204 280.558 48.5661C281.074 49.1117 281.704 49.3846 282.446 49.3846C283.188 49.3846 283.817 49.1154 284.334 48.577C284.85 48.0386 285.109 47.3037 285.109 46.3725Z" fill="#818AA3"/>
<path d="M295.28 36.3098H291.548V52.4617H295.28V36.3098Z" fill="#818AA3"/>
<path d="M185.883 69.6534C184.69 69.6534 183.617 69.3987 182.664 68.8894C181.711 68.3801 180.961 67.6526 180.416 66.7067C179.87 65.7609 179.597 64.655 179.597 63.389C179.597 62.1376 179.874 61.0354 180.427 60.0822C180.98 59.1291 181.736 58.398 182.697 57.8887C183.657 57.3794 184.734 57.1247 185.927 57.1247C187.12 57.1247 188.197 57.3794 189.157 57.8887C190.118 58.398 190.875 59.1291 191.427 60.0822C191.98 61.0354 192.257 62.1376 192.257 63.389C192.257 64.6404 191.977 65.7427 191.417 66.6958C190.856 67.6489 190.092 68.3801 189.125 68.8894C188.157 69.3987 187.077 69.6534 185.883 69.6534ZM185.883 66.423C186.596 66.423 187.204 66.1611 187.706 65.6372C188.208 65.1134 188.459 64.364 188.459 63.389C188.459 62.4141 188.215 61.6647 187.728 61.1409C187.24 60.617 186.64 60.3551 185.927 60.3551C185.2 60.3551 184.596 60.6134 184.115 61.13C183.635 61.6465 183.395 62.3996 183.395 63.389C183.395 64.364 183.632 65.1134 184.105 65.6372C184.577 66.1611 185.17 66.423 185.883 66.423Z" fill="#818AA3"/>
<path d="M206.27 57.2995V69.4789H202.537V67.8201C202.159 68.3585 201.646 68.7914 200.999 69.1188C200.351 69.4462 199.634 69.6099 198.849 69.6099C197.917 69.6099 197.095 69.4026 196.382 68.9878C195.669 68.5731 195.116 67.9729 194.723 67.1871C194.33 66.4013 194.134 65.4774 194.134 64.4151V57.2995H197.845V63.9131C197.845 64.728 198.056 65.3609 198.478 65.812C198.899 66.2631 199.467 66.4887 200.18 66.4887C200.908 66.4887 201.482 66.2631 201.904 65.812C202.326 65.3609 202.537 64.728 202.537 63.9131V57.2995H206.27Z" fill="#818AA3"/>
<path d="M220.828 69.6317C219.388 69.6317 218.067 69.2971 216.867 68.6277C215.666 67.9584 214.713 67.0234 214.008 65.823C213.302 64.6225 212.949 63.2728 212.949 61.7741C212.949 60.2753 213.302 58.9293 214.008 57.7361C214.713 56.5429 215.666 55.6116 216.867 54.9422C218.067 54.2729 219.388 53.9382 220.828 53.9382C222.269 53.9382 223.589 54.2729 224.79 54.9422C225.99 55.6116 226.936 56.5429 227.627 57.7361C228.319 58.9293 228.664 60.2753 228.664 61.7741C228.664 63.2728 228.315 64.6225 227.616 65.823C226.918 67.0234 225.972 67.9584 224.779 68.6277C223.586 69.2971 222.269 69.6317 220.828 69.6317ZM220.828 66.2267C222.051 66.2267 223.029 65.8193 223.764 65.0044C224.499 64.1896 224.866 63.1128 224.866 61.7741C224.866 60.4208 224.499 59.3403 223.764 58.5328C223.029 57.7252 222.051 57.3214 220.828 57.3214C219.592 57.3214 218.606 57.7215 217.871 58.5218C217.136 59.3222 216.769 60.4062 216.769 61.7741C216.769 63.1273 217.136 64.2077 217.871 65.0154C218.606 65.823 219.592 66.2267 220.828 66.2267Z" fill="#818AA3"/>
<path d="M238.159 57.1687C239.585 57.1687 240.723 57.6307 241.575 58.5547C242.426 59.4787 242.852 60.7483 242.852 62.3635V69.4791H239.141V62.8655C239.141 62.0506 238.93 61.4176 238.508 60.9666C238.086 60.5155 237.519 60.2899 236.806 60.2899C236.093 60.2899 235.525 60.5155 235.103 60.9666C234.681 61.4176 234.47 62.0506 234.47 62.8655V69.4791H230.738V57.2996H234.47V58.9148C234.849 58.3764 235.358 57.9508 235.998 57.6379C236.638 57.3251 237.359 57.1687 238.159 57.1687Z" fill="#818AA3"/>
<path d="M254.835 60.2678H245.231V63.3672H254.835V60.2678Z" fill="#818AA3"/>
<path d="M261.841 53.3269H258.109V69.4788H261.841V53.3269Z" fill="#818AA3"/>
<path d="M266.425 56.0333C265.77 56.0333 265.235 55.8405 264.821 55.4549C264.406 55.0693 264.199 54.5927 264.199 54.0252C264.199 53.4432 264.406 52.9594 264.821 52.5737C265.235 52.1881 265.77 51.9953 266.425 51.9953C267.065 51.9953 267.593 52.1881 268.007 52.5737C268.422 52.9594 268.629 53.4432 268.629 54.0252C268.629 54.5927 268.422 55.0693 268.007 55.4549C267.593 55.8405 267.065 56.0333 266.425 56.0333ZM268.28 57.2993V69.4787H264.548V57.2993H268.28Z" fill="#818AA3"/>
<path d="M278.408 57.1687C279.834 57.1687 280.972 57.6307 281.824 58.5547C282.675 59.4787 283.1 60.7483 283.1 62.3635V69.4791H279.39V62.8655C279.39 62.0506 279.179 61.4176 278.757 60.9666C278.335 60.5155 277.767 60.2899 277.055 60.2899C276.342 60.2899 275.774 60.5155 275.352 60.9666C274.93 61.4176 274.719 62.0506 274.719 62.8655V69.4791H270.987V57.2996H274.719V58.9148C275.097 58.3764 275.607 57.9508 276.247 57.6379C276.887 57.3251 277.608 57.1687 278.408 57.1687Z" fill="#818AA3"/>
<path d="M297.179 63.1926C297.179 63.5418 297.157 63.9056 297.114 64.284H288.666C288.725 65.0406 288.968 65.619 289.398 66.0192C289.827 66.4193 290.354 66.6194 290.98 66.6194C291.911 66.6194 292.559 66.2265 292.923 65.4408H296.895C296.691 66.2411 296.324 66.9614 295.793 67.6016C295.262 68.2419 294.596 68.7439 293.796 69.1077C292.996 69.4715 292.101 69.6534 291.111 69.6534C289.918 69.6534 288.856 69.3987 287.924 68.8894C286.993 68.3801 286.265 67.6526 285.742 66.7067C285.218 65.7609 284.956 64.655 284.956 63.389C284.956 62.1231 285.214 61.0172 285.731 60.0713C286.247 59.1255 286.971 58.398 287.903 57.8887C288.834 57.3794 289.903 57.1247 291.111 57.1247C292.29 57.1247 293.338 57.3721 294.254 57.8668C295.171 58.3616 295.888 59.0673 296.404 59.984C296.921 60.9008 297.179 61.9703 297.179 63.1926ZM293.359 62.2104C293.359 61.5701 293.141 61.0608 292.704 60.6825C292.268 60.3042 291.722 60.115 291.068 60.115C290.442 60.115 289.914 60.2969 289.485 60.6607C289.056 61.0244 288.79 61.541 288.688 62.2104H293.359Z" fill="#818AA3"/>
</g>
</g>
</svg>
